<svg xmlns="http://www.w3.org/2000/svg" width="1920" height="1080" viewBox="0 0 1920 1080">
  <defs>
    <linearGradient id="bgGrad" x1="0%" y1="0%" x2="100%" y2="100%">
      <stop offset="0%" style="stop-color:#13020a;stop-opacity:1" />
      <stop offset="100%" style="stop-color:#090105;stop-opacity:1" />
    </linearGradient>
    <radialGradient id="glow1" cx="30%" cy="30%" r="50%" fx="30%" fy="30%">
      <stop offset="0%" style="stop-color:#9c27b0;stop-opacity:0.2" />
      <stop offset="100%" style="stop-color:#9c27b0;stop-opacity:0" />
    </radialGradient>
    <radialGradient id="glow2" cx="70%" cy="60%" r="50%" fx="70%" fy="60%">
      <stop offset="0%" style="stop-color:#e91e63;stop-opacity:0.15" />
      <stop offset="100%" style="stop-color:#e91e63;stop-opacity:0" />
    </radialGradient>
  </defs>
  
  <!-- Background -->
  <rect width="100%" height="100%" fill="url(#bgGrad)" />
  
  <!-- Glows -->
  <circle cx="30%" cy="30%" r="600" fill="url(#glow1)" />
  <circle cx="70%" cy="60%" r="500" fill="url(#glow2)" />
  
  <!-- Particles -->
  <g opacity="0.5">
    <circle cx="200" cy="200" r="1.5" fill="#ffffff" />
    <circle cx="500" cy="300" r="1" fill="#ffffff" />
    <circle cx="800" cy="150" r="1.2" fill="#ffffff" />
    <circle cx="1200" cy="250" r="1" fill="#ffffff" />
    <circle cx="1500" cy="400" r="1.5" fill="#ffffff" />
    <circle cx="1700" cy="200" r="1" fill="#ffffff" />
    <circle cx="300" cy="500" r="1.2" fill="#ffffff" />
    <circle cx="600" cy="650" r="1" fill="#ffffff" />
    <circle cx="900" cy="700" r="1.5" fill="#ffffff" />
    <circle cx="1300" cy="600" r="1" fill="#ffffff" />
    <circle cx="1600" cy="800" r="1.2" fill="#ffffff" />
    <circle cx="400" cy="900" r="1" fill="#ffffff" />
    <circle cx="700" cy="950" r="1.5" fill="#ffffff" />
    <circle cx="1000" cy="850" r="1" fill="#ffffff" />
    <circle cx="1400" cy="950" r="1.2" fill="#ffffff" />
    <circle cx="1700" cy="900" r="1" fill="#ffffff" />
  </g>
</svg> 