<svg xmlns="http://www.w3.org/2000/svg" width="1920" height="1080" viewBox="0 0 1920 1080">
  <defs>
    <linearGradient id="bgGrad" x1="0%" y1="0%" x2="100%" y2="0%">
      <stop offset="0%" style="stop-color:#f8d7e1;stop-opacity:1" />
      <stop offset="100%" style="stop-color:#dce6fa;stop-opacity:1" />
    </linearGradient>
    <radialGradient id="glow1" cx="30%" cy="30%" r="50%" fx="30%" fy="30%">
      <stop offset="0%" style="stop-color:#d81b60;stop-opacity:0.25" />
      <stop offset="100%" style="stop-color:#d81b60;stop-opacity:0" />
    </radialGradient>
    <radialGradient id="glow2" cx="70%" cy="60%" r="50%" fx="70%" fy="60%">
      <stop offset="0%" style="stop-color:#3949ab;stop-opacity:0.25" />
      <stop offset="100%" style="stop-color:#3949ab;stop-opacity:0" />
    </radialGradient>
    <filter id="noise" x="0%" y="0%" width="100%" height="100%">
      <feTurbulence type="fractalNoise" baseFrequency="0.75" numOctaves="3" stitchTiles="stitch" result="noise"/>
      <feColorMatrix type="matrix" values="0 0 0 0 0 0 0 0 0 0 0 0 0 0 0 0 0 0 0.05 0" in="noise" result="coloredNoise"/>
      <feComposite operator="in" in="coloredNoise" in2="SourceGraphic" result="monoNoise"/>
      <feBlend in="SourceGraphic" in2="monoNoise" mode="overlay" result="result"/>
    </filter>
  </defs>
  
  <!-- Background -->
  <rect width="100%" height="100%" fill="url(#bgGrad)" filter="url(#noise)" />
  
  <!-- Glows -->
  <circle cx="30%" cy="30%" r="700" fill="url(#glow1)" />
  <circle cx="70%" cy="60%" r="600" fill="url(#glow2)" />
  
  <!-- Dark Overlay -->
  <rect width="100%" height="100%" fill="black" opacity="0.08" />
  
  <!-- Particles -->
  <g opacity="0.5">
    <circle cx="200" cy="200" r="2" fill="#d81b60" />
    <circle cx="500" cy="300" r="1.5" fill="#8e24aa" />
    <circle cx="800" cy="150" r="2" fill="#3949ab" />
    <circle cx="1200" cy="250" r="1.5" fill="#d81b60" />
    <circle cx="1500" cy="400" r="2" fill="#8e24aa" />
    <circle cx="1700" cy="200" r="1.5" fill="#3949ab" />
    <circle cx="300" cy="500" r="2" fill="#d81b60" />
    <circle cx="600" cy="650" r="1.5" fill="#8e24aa" />
    <circle cx="900" cy="700" r="2" fill="#3949ab" />
    <circle cx="1300" cy="600" r="1.5" fill="#d81b60" />
    <circle cx="1600" cy="800" r="2" fill="#8e24aa" />
    <circle cx="400" cy="900" r="1.5" fill="#3949ab" />
    <circle cx="700" cy="950" r="2" fill="#d81b60" />
    <circle cx="1000" cy="850" r="1.5" fill="#8e24aa" />
    <circle cx="1400" cy="950" r="2" fill="#3949ab" />
    <circle cx="1700" cy="900" r="1.5" fill="#d81b60" />
  </g>
</svg> 